<?xml version="1.0" encoding="utf-8"?><svg viewBox="0 0 44 44" xmlns="http://www.w3.org/2000/svg" xmlns:xlink="http://www.w3.org/1999/xlink"><style>:root>svg{display:none}:root>svg:target{display:block}</style><svg fill="none" viewBox="0 0 44 44" id="instagram" xmlns="http://www.w3.org/2000/svg"><path d="M33.57 7.83a2.6 2.6 0 1 0 0 5.2 2.6 2.6 0 0 0 0-5.2Zm9.967 5.243a16.448 16.448 0 0 0-.997-5.265 10.704 10.704 0 0 0-2.513-3.835 10.183 10.183 0 0 0-3.835-2.491A15.817 15.817 0 0 0 30.927.463C28.63.333 27.893.333 22 .333s-6.63 0-8.927.13c-1.8.038-3.58.382-5.265 1.019a10.357 10.357 0 0 0-3.835 2.491 10.183 10.183 0 0 0-2.491 3.835 15.817 15.817 0 0 0-1.019 5.265C.333 15.37.333 16.107.333 22s0 6.63.13 8.927c.038 1.8.382 3.58 1.019 5.265a10.184 10.184 0 0 0 2.491 3.835 10.359 10.359 0 0 0 3.835 2.491c1.685.637 3.465.981 5.265 1.019 2.297.13 3.034.13 8.927.13s6.63 0 8.927-.13c1.8-.038 3.58-.382 5.265-1.019a10.184 10.184 0 0 0 3.835-2.491 10.51 10.51 0 0 0 2.513-3.835c.618-1.69.955-3.468.997-5.265 0-2.297.13-3.034.13-8.927s0-6.63-.13-8.927Zm-3.9 17.594a12.156 12.156 0 0 1-.737 4.03 6.631 6.631 0 0 1-1.625 2.491 6.912 6.912 0 0 1-2.492 1.625c-1.292.472-2.654.721-4.03.737-2.166.108-2.968.13-8.666.13-5.699 0-6.5 0-8.667-.13a12.412 12.412 0 0 1-4.203-.65 7.085 7.085 0 0 1-2.384-1.625 6.5 6.5 0 0 1-1.603-2.492 12.004 12.004 0 0 1-.867-4.116c0-2.167-.13-2.969-.13-8.667s0-6.5.13-8.667c.01-1.406.267-2.8.759-4.116a6.5 6.5 0 0 1 1.711-2.384A6.803 6.803 0 0 1 9.217 5.1a12.415 12.415 0 0 1 4.116-.737c2.167 0 2.969-.13 8.667-.13s6.5 0 8.667.13c1.375.016 2.738.265 4.03.737a6.63 6.63 0 0 1 2.578 1.733A6.63 6.63 0 0 1 38.9 9.217c.482 1.319.73 2.712.737 4.116.108 2.167.13 2.969.13 8.667s-.022 6.5-.13 8.667ZM22 10.885A11.115 11.115 0 1 0 33.137 22 11.093 11.093 0 0 0 22 10.885Zm0 18.33a7.215 7.215 0 1 1 0-14.43 7.215 7.215 0 0 1 0 14.43Z" fill="#fff"/></svg><svg stroke="currentColor" fill="currentColor" stroke-width="0" viewBox="0 0 16 16" class="bplayPauseButton" id="pause" xmlns="http://www.w3.org/2000/svg"><path d="M5.5 3.5A1.5 1.5 0 0 1 7 5v6a1.5 1.5 0 0 1-3 0V5a1.5 1.5 0 0 1 1.5-1.5zm5 0A1.5 1.5 0 0 1 12 5v6a1.5 1.5 0 0 1-3 0V5a1.5 1.5 0 0 1 1.5-1.5z" stroke="none"/></svg><svg stroke="currentColor" fill="currentColor" stroke-width="0" viewBox="0 0 24 29" id="play" xmlns="http://www.w3.org/2000/svg"><path d="M24 14.5 0 29V0l24 14.5Z" stroke="none"/></svg></svg>